# xmcd CD database file
# Copyright (C) 1996 Ti Kan
#
# Track frame offsets:
# 	150
# 	16042
# 	33257
# 	49232
# 	66520
# 	88267
# 	102762
# 	116912
# 	136870
# 	154942
#
# Disc length: 2306 seconds
#
# Revision: 1
# Processed by: cddbd v1.4b41PL1 Copyright (c) Steve Scherf et al.
# Submitted via: DiscPlay 3.4.1
#
DISCID=8309000a
DTITLE=Jerry Jeff Walker - Ridin' High
DYEAR=1900
DGENRE=
TTITLE0=Public Domain
TTITLE1=Pick Up The Tempo
TTITLE2=Like a Coat From the Cold
TTITLE3=I Love You
TTITLE4=Night Rider's Lament
TTITLE5=Goodbye Easy Street
TTITLE6=Pot Can't Call the Kettle Black
TTITLE7=Mississippi You're on My Mind
TTITLE8=Jaded Lover
TTITLE9=Pissin' in the Wind
EXTD=
EXTT0=
EXTT1=
EXTT2=
EXTT3=
EXTT4=
EXTT5=
EXTT6=
EXTT7=
EXTT8=
EXTT9=
PLAYORDER=
